HIERARCHY
ROOT pelvis
{
  OFFSET 0 100 0
  CHANNELS 6 Xposition Yposition Zposition Zrotation Xrotation Yrotation
  JOINT pelvis_right_femur
  {
    OFFSET -10.78128 -3.44521 -0.5502486
    CHANNELS 3 Zrotation Xrotation Yrotation
    JOINT right_femur_tibia
    {
      OFFSET -0.8047443 -44.0398 -0.1307829
      CHANNELS 3 Zrotation Xrotation Yrotation
      JOINT right_tibia_foot
      {
        OFFSET 3.006224 -47.83518 -5
        CHANNELS 3 Zrotation Xrotation Yrotation
        End Site
        {
          OFFSET 0 -5 15
        }
      }
    }
  }
  JOINT pelvis_left_femur
  {
    OFFSET 10.78128 -3.44521 -0.5502486
    CHANNELS 3 Zrotation Xrotation Yrotation
    JOINT left_femur_tibia
    {
      OFFSET 0.8047443 -44.0398 -0.1307829
      CHANNELS 3 Zrotation Xrotation Yrotation
      JOINT left_tibia_foot
      {
        OFFSET -4.370144 -48.10324 -4.275266
        CHANNELS 3 Zrotation Xrotation Yrotation
        End Site
        {
          OFFSET 0 -5 15
        }
      }
    }
  }
  JOINT pelvis_spine1
  {
    OFFSET 0 6.468898 -3.129235
    CHANNELS 3 Zrotation Xrotation Yrotation
    JOINT spine1
    {
      OFFSET 0 23.15396 4.99043
      CHANNELS 3 Zrotation Xrotation Yrotation
      JOINT spine2
      {
        OFFSET 0 20.79997 -5.064912
        CHANNELS 3 Zrotation Xrotation Yrotation
        JOINT neck
        {
          OFFSET 0 14.38658 9.616178
          CHANNELS 3 Zrotation Xrotation Yrotation
          End Site
          {
            OFFSET 0 20 0
          }
        }
      }
      JOINT right_manubrium
      {
        OFFSET -5.722621 16.35077 3.967754
        CHANNELS 3 Zrotation Xrotation Yrotation
        JOINT right_clavicle
        {
          OFFSET -13.16364 1.694482 -4.693211
          CHANNELS 3 Zrotation Xrotation Yrotation
          JOINT right_humerus
          {
            OFFSET -28.5034 -0.3100689 -2.792744
            CHANNELS 3 Zrotation Xrotation Yrotation
            JOINT right_radius
            {
              OFFSET -25.15693 0.02248979 -1.271978
              CHANNELS 3 Zrotation Xrotation Yrotation
              End Site
              {
                OFFSET -15 0 0
              }
            }
          }
        }
      }
      JOINT left_manubrium
      {
        OFFSET 5.722621 16.35077 3.967754
        CHANNELS 3 Zrotation Xrotation Yrotation
        JOINT left_clavicle
        {
          OFFSET 13.16364 1.694482 -4.693211
          CHANNELS 3 Zrotation Xrotation Yrotation
          JOINT left_humerus
          {
            OFFSET 29.39168 -1.063119 -2.237045
            CHANNELS 3 Zrotation Xrotation Yrotation
            JOINT left_radius
            {
              OFFSET 24.59957 -0.9528479 0.9047498
              CHANNELS 3 Zrotation Xrotation Yrotation
              End Site
              {
                OFFSET 15 -0 -0
              }
            }
          }
        }
      }
    }
  }
}
MOTION
Frames: 16
Frame Time: 0.0416666666667
36.95934 104.3556 254.7521 2.94301 -8.296669 5.645797 -0.1596688 12.75107 6.353519 7.081712e-07 39.13963 -9.496267e-07 3.958871 -11.45171 -5.057621 -3.007673 -14.39901 -8.182321 3.066305e-07 19.9829 4.838941e-06 -5.598569 -9.458882 18.9544 -3.030247 -0.1289882 6.812795 -0.5499596 9.730832 -4.139314 1.590203 22.64119 5.925381 1.900398 -16.44232 7.538015 2.622485 -20.33184 11.30235 83.14807 26.2371 -9.547432 -1.122155e-07 9.678711e-07 22.72256 -26.16126 14.03297 14.98512 3.194107 -14.60575 -3.298895 -93.60562 25.84373 24.68004 2.327126e-06 -3.763397e-07 -9.954707 -5.702846 5.377663 19.7177
38.40384 104.9203 260.378 3.118274 -8.739162 6.04507 -0.4668905 10.41141 6.649352 5.365949e-07 45.52538 -6.607852e-07 3.865542 -9.299254 -5.769087 -4.044377 -10.76746 -9.419127 9.432879e-08 20.97318 4.775461e-06 -5.371921 -10.10315 19.05173 -3.203249 -0.1889204 6.278385 -0.598679 9.736887 -4.251366 1.710716 22.79169 6.040047 1.919957 -16.39055 7.822018 2.863175 -19.54449 11.10478 83.61033 26.0276 -10.32696 -1.907951e-07 1.070947e-06 21.56442 -25.33787 13.79114 14.23321 3.042825 -14.43228 -3.466907 -92.8157 26.38384 23.49668 2.667865e-06 -1.176438e-07 -9.576942 -5.562673 5.626272 19.60404
39.7986 105.7597 265.771 3.295268 -9.135791 6.595174 -0.6362723 6.971785 6.900607 2.766634e-08 50.79455 -1.177615e-07 3.876673 -7.79147 -6.6734 -4.963422 -6.303679 -10.67183 -1.369692e-07 20.98027 4.305922e-06 -5.046859 -11.20473 19.16758 -3.353785 -0.2400366 5.65457 -0.572084 9.666117 -4.494498 1.854677 22.94577 6.117371 1.870917 -16.31148 8.151787 3.009272 -18.74236 10.87741 84.37552 25.67224 -11.44863 -2.706988e-07 1.242537e-06 20.40897 -24.31627 13.60236 13.30895 3.02283 -14.43421 -3.683189 -91.86978 26.95841 21.84825 2.998905e-06 2.147279e-07 -9.766705 -5.371954 6.00288 19.37145
41.11184 106.7203 270.9109 3.409021 -9.355197 7.237242 -0.5563029 2.607767 7.01322 -7.917655e-07 53.80719 6.776356e-07 3.800123 -7.02468 -7.606739 -5.636419 -1.371981 -11.79376 -3.988969e-07 20.49101 3.45986e-06 -4.663245 -12.5657 19.19692 -3.428488 -0.2785414 4.976128 -0.4370069 9.515925 -4.860781 1.995789 23.04884 6.143797 1.77587 -16.26239 8.462899 3.047332 -17.92459 10.63178 85.2281 25.27183 -12.84722 -3.303734e-07 1.421896e-06 19.13541 -23.02709 13.41597 12.19817 3.144102 -14.67086 -3.910955 -90.63358 27.476 19.73544 3.20752e-06 5.655863e-07 -10.61879 -5.02401 6.545995 18.87382
42.34393 107.5907 275.8507 3.448269 -9.295812 7.918163 -0.3373717 -1.940466 6.830827 -1.582923e-06 53.88005 1.394468e-06 3.598618 -6.899905 -8.315054 -5.988655 3.15292 -12.60932 -5.398229e-07 18.89598 2.172507e-06 -4.262482 -14.08763 19.11995 -3.450121 -0.2938085 4.331138 -0.2254167 9.286303 -5.269932 2.095373 23.08617 6.148882 1.678534 -16.27919 8.700237 2.939427 -17.23542 10.39498 85.97876 24.91799 -14.19912 -3.533132e-07 1.533037e-06 17.92885 -21.83353 13.20158 11.20605 3.435914 -15.12396 -4.109471 -89.26367 27.78943 17.44252 3.19557e-06 8.392737e-07 -12.00386 -4.523277 7.162469 18.1226
43.49544 108.1715 280.7076 3.411766 -8.976298 8.591552 -0.04418085 -6.537636 6.315919 -2.129502e-06 50.86752 1.836862e-06 3.342655 -7.291358 -8.801618 -6.057933 7.152332 -13.03285 -5.89756e-07 16.61395 4.734612e-07 -4.029035 -15.71993 18.85073 -3.425257 -0.2495309 3.723312 0.05032187 8.966429 -5.701891 2.152774 23.0974 6.157773 1.599864 -16.34002 8.86454 2.701602 -16.59717 10.17235 86.70493 24.66244 -15.53139 -3.353869e-07 1.537769e-06 16.68803 -20.92007 13.01167 10.43045 3.911911 -15.79243 -4.263723 -87.79961 27.90955 14.86121 2.919231e-06 1.01499e-06 -13.98877 -3.920397 7.727955 17.19255
44.55518 108.3378 285.5664 3.290914 -8.480662 9.212443 0.2961404 -11.01398 5.55614 -2.428429e-06 45.45079 2.03832e-06 2.939705 -8.055489 -9.091363 -5.929171 10.65532 -13.16927 -6.209785e-07 14.34038 -1.496602e-06 -3.992037 -17.30666 18.41387 -3.343222 -0.1422341 3.138385 0.3715176 8.561262 -6.116019 2.187059 23.1042 6.155965 1.538839 -16.43769 8.965381 2.366909 -15.93973 9.943429 87.32701 24.49513 -16.79786 -2.794657e-07 1.427803e-06 15.30469 -20.1337 12.78704 9.770905 4.506996 -16.58498 -4.352698 -86.23615 27.88447 12.04299 2.387031e-06 1.127031e-06 -16.32142 -3.208083 8.27425 16.08775
45.52945 108.0467 290.5652 3.125298 -7.876555 9.759067 0.5847995 -15.02524 4.583066 -2.476246e-06 38.46521 2.025969e-06 2.529107 -8.843736 -9.200412 -5.698376 13.47105 -12.97624 -6.005452e-07 12.71079 -3.527505e-06 -4.309126 -18.73673 17.78282 -3.241634 0.03702814 2.617282 0.7013327 8.132664 -6.489587 2.192443 23.18823 6.201847 1.539823 -16.59477 9.027768 2.025518 -15.25292 9.759949 88.10946 24.52314 -18.05536 -1.972614e-07 1.187115e-06 13.78757 -19.74671 12.62573 9.382591 5.184651 -17.47546 -4.37359 -84.93402 27.77657 9.175057 1.638931e-06 1.164698e-06 -18.90927 -2.504744 8.654601 15.01919
46.39078 107.3171 295.6518 2.902683 -7.308196 10.20214 0.9048044 -18.57533 3.687478 -2.522504e-06 31.25383 2.069416e-06 1.871981 -9.887037 -9.235632 -5.418931 15.91911 -12.84322 -6.021359e-07 11.80974 -5.524236e-06 -4.667935 -19.88857 17.20402 -3.08577 0.2431726 2.111411 1.024401 7.645845 -6.770792 2.223368 23.2776 6.186124 1.519975 -16.74871 9.070044 1.669324 -14.52269 9.529373 88.55858 24.5467 -19.07219 -1.000548e-07 8.955555e-07 12.19192 -19.06315 12.30444 8.855438 5.811127 -18.22637 -4.306243 -83.58147 27.68548 6.408269 7.838663e-07 1.238853e-06 -21.13985 -1.738583 9.132834 13.86341
47.13225 106.2799 300.8139 2.679894 -6.849597 10.54539 1.203136 -21.39263 2.933151 -2.52349e-06 25.09675 2.150268e-06 1.108629 -10.66703 -9.221991 -5.188809 17.92009 -12.75359 -5.470319e-07 12.20531 -7.179837e-06 -5.110793 -20.64442 16.67038 -2.918809 0.4498362 1.66214 1.302604 7.213439 -6.961078 2.264433 23.41468 6.168374 1.52598 -16.9278 9.1075 1.400916 -13.77683 9.316721 88.9208 24.6486 -19.93328 -1.031155e-08 5.726395e-07 10.56063 -18.33359 11.92145 8.323573 6.314444 -18.82494 -4.19411 -82.46366 27.64663 3.998805 -5.521299e-08 1.319281e-06 -22.89108 -1.009322 9.585804 12.81035
47.76545 105.1244 306.0322 2.509164 -6.600336 10.80788 1.48064 -23.24494 2.448418 -2.503004e-06 21.05653 2.283497e-06 0.359236 -11.00811 -9.216908 -5.056321 19.39947 -12.7318 -4.131501e-07 14.02565 -8.24497e-06 -5.57046 -20.91867 16.24969 -2.760758 0.6251715 1.311934 1.501546 6.915137 -7.058074 2.315879 23.59328 6.149967 1.552742 -17.10009 9.144579 1.258176 -13.09506 9.154203 89.2559 24.77244 -20.61759 5.381439e-08 2.823292e-07 9.069858 -17.64507 11.54665 7.824614 6.614529 -19.21471 -4.085934 -81.71265 27.68756 2.213371 -7.268253e-07 1.39493e-06 -23.97425 -0.4187594 9.961685 12.0064
48.34393 104.1054 311.358 2.487431 -6.69452 11.04958 1.620313 -23.89402 2.217432 -2.444033e-06 20.42614 2.445454e-06 -0.1622938 -10.38723 -9.267356 -5.123453 20.34297 -12.72327 -1.650374e-07 17.3632 -8.538634e-06 -6.102125 -20.73029 15.96808 -2.673881 0.7628365 1.086123 1.567305 6.856577 -7.06352 2.372341 23.90455 6.191683 1.63455 -17.26058 9.214713 1.27952 -12.53979 9.099741 89.9797 24.86758 -21.20888 7.384633e-08 5.753863e-08 7.831196 -17.40755 11.317 7.569553 6.669142 -19.40675 -4.061779 -81.69589 27.85797 1.259466 -1.102374e-06 1.424304e-06 -24.31328 -0.1129269 10.13063 11.6786
48.89525 103.4436 316.747 2.535865 -7.064835 11.26018 1.831468 -23.24292 2.331047 -2.389409e-06 22.11708 2.648944e-06 -0.7303789 -9.420482 -9.299983 -5.246983 20.47713 -12.75833 7.63314e-08 22.20497 -8.070142e-06 -6.51932 -19.89723 15.88497 -2.56578 0.8413045 1.014177 1.538868 6.992567 -6.958478 2.439678 24.22013 6.181744 1.709695 -17.3906 9.246838 1.376297 -12.18559 9.110344 90.57196 24.8686 -21.49672 6.959869e-08 -8.570475e-08 6.919235 -17.16831 11.09197 7.326627 6.448628 -19.35748 -4.084127 -82.07779 28.06427 1.238422 -1.232862e-06 1.424192e-06 -23.78406 0.04877728 10.28227 11.5888
49.40998 103.2659 322.1344 2.566049 -7.594518 11.37426 2.278446 -21.36198 2.773549 -2.343264e-06 24.26455 2.895454e-06 -1.516488 -8.861327 -9.267754 -5.272259 19.56046 -12.77411 2.111311e-07 28.68531 -7.025875e-06 -6.8789 -18.37378 15.98067 -2.359699 0.8967695 1.115166 1.47542 7.226632 -6.745041 2.52589 24.52055 6.060073 1.744115 -17.51031 9.210874 1.482774 -12.02738 9.162516 90.88246 24.83213 -21.45871 7.185552e-08 -1.922784e-07 6.296368 -16.68491 10.81775 6.98128 6.025047 -19.11632 -4.071853 -82.77609 28.31354 2.025198 -1.290541e-06 1.407298e-06 -22.59406 0.151377 10.51505 11.59533
49.90294 103.5996 327.5233 2.592282 -8.226502 11.3447 2.805464 -17.95339 3.360689 -2.231502e-06 26.24424 3.105679e-06 -2.375362 -8.900403 -9.100895 -5.164997 17.15754 -12.6577 2.092154e-07 35.9567 -5.586754e-06 -7.309339 -16.33209 16.29987 -2.106251 0.9755651 1.435292 1.359713 7.508487 -6.389678 2.622597 24.89294 5.874917 1.759764 -17.64344 9.133364 1.575954 -12.15337 9.27629 91.11333 24.84524 -21.00012 9.662805e-08 -3.134372e-07 6.16109 -16.32386 10.57847 6.801773 5.49615 -18.70113 -3.974739 -84.1772 28.66647 3.722557 -1.380937e-06 1.327737e-06 -20.83265 0.08460102 10.73023 11.85161
50.32021 104.2957 332.6952 2.504538 -8.86205 11.09231 3.47474 -14.00207 4.092128 -2.236124e-06 27.0078 3.383453e-06 -3.608857 -10.33405 -8.910956 -4.815786 14.0599 -12.74211 -8.154984e-08 41.86719 -4.229469e-06 -7.341218 -14.16981 16.96475 -1.747851 1.038589 1.818196 1.253449 7.633185 -5.915944 2.771166 25.09198 5.46607 1.615073 -17.66403 8.984708 1.460436 -12.52769 9.269042 90.32793 24.59491 -19.83763 1.604572e-07 -3.738989e-07 6.531948 -15.23238 10.02504 6.319 4.922483 -18.02455 -3.772175 -85.2094 28.93223 5.807005 -1.531787e-06 1.30015e-06 -18.45458 0.1394071 11.29328 11.83387
